<svg viewBox="0 0 1000 700" xmlns="http://www.w3.org/2000/svg" font-family="'Segoe UI', Arial, sans-serif">
  <defs>
    <linearGradient id="bg" x1="0" y1="0" x2="0" y2="1">
      <stop offset="0%" stop-color="#0a0f1a"/>
      <stop offset="100%" stop-color="#111827"/>
    </linearGradient>
    <linearGradient id="o2grad" x1="0" y1="0" x2="1" y2="1">
      <stop offset="0%" stop-color="#1e0a3c"/>
      <stop offset="100%" stop-color="#2d1060"/>
    </linearGradient>
    <linearGradient id="medGrad" x1="0" y1="0" x2="1" y2="1">
      <stop offset="0%" stop-color="#0a2a1a"/>
      <stop offset="100%" stop-color="#0f3825"/>
    </linearGradient>
    <linearGradient id="denGrad" x1="0" y1="0" x2="1" y2="1">
      <stop offset="0%" stop-color="#0a1a2a"/>
      <stop offset="100%" stop-color="#0f2538"/>
    </linearGradient>
    <filter id="glow2">
      <feGaussianBlur stdDeviation="4" result="blur"/>
      <feMerge><feMergeNode in="blur"/><feMergeNode in="SourceGraphic"/></feMerge>
    </filter>
    <filter id="drop">
      <feDropShadow dx="0" dy="6" stdDeviation="10" flood-color="#000" flood-opacity="0.5"/>
    </filter>
    <marker id="arr1" markerWidth="10" markerHeight="7" refX="9" refY="3.5" orient="auto">
      <polygon points="0 0, 10 3.5, 0 7" fill="#60a5fa"/>
    </marker>
    <marker id="arr2" markerWidth="10" markerHeight="7" refX="9" refY="3.5" orient="auto">
      <polygon points="0 0, 10 3.5, 0 7" fill="#a855f7"/>
    </marker>
    <marker id="arr3" markerWidth="10" markerHeight="7" refX="9" refY="3.5" orient="auto">
      <polygon points="0 0, 10 3.5, 0 7" fill="#22d3ee"/>
    </marker>
    <marker id="arr4" markerWidth="10" markerHeight="7" refX="9" refY="3.5" orient="auto">
      <polygon points="0 0, 10 3.5, 0 7" fill="#f97316"/>
    </marker>
  </defs>

  <!-- Background -->
  <rect width="1000" height="700" fill="url(#bg)"/>

  <!-- Dot grid -->
  <g opacity="0.07" fill="#60a5fa">
    <circle cx="50" cy="100" r="1.2"/> <circle cx="150" cy="100" r="1.2"/> <circle cx="250" cy="100" r="1.2"/> <circle cx="350" cy="100" r="1.2"/> <circle cx="450" cy="100" r="1.2"/> <circle cx="550" cy="100" r="1.2"/> <circle cx="650" cy="100" r="1.2"/> <circle cx="750" cy="100" r="1.2"/> <circle cx="850" cy="100" r="1.2"/> <circle cx="950" cy="100" r="1.2"/>
    <circle cx="50" cy="200" r="1.2"/> <circle cx="150" cy="200" r="1.2"/> <circle cx="250" cy="200" r="1.2"/> <circle cx="350" cy="200" r="1.2"/> <circle cx="450" cy="200" r="1.2"/> <circle cx="550" cy="200" r="1.2"/> <circle cx="650" cy="200" r="1.2"/> <circle cx="750" cy="200" r="1.2"/> <circle cx="850" cy="200" r="1.2"/> <circle cx="950" cy="200" r="1.2"/>
    <circle cx="50" cy="300" r="1.2"/> <circle cx="150" cy="300" r="1.2"/> <circle cx="250" cy="300" r="1.2"/> <circle cx="350" cy="300" r="1.2"/> <circle cx="450" cy="300" r="1.2"/> <circle cx="550" cy="300" r="1.2"/> <circle cx="650" cy="300" r="1.2"/> <circle cx="750" cy="300" r="1.2"/> <circle cx="850" cy="300" r="1.2"/> <circle cx="950" cy="300" r="1.2"/>
    <circle cx="50" cy="400" r="1.2"/> <circle cx="150" cy="400" r="1.2"/> <circle cx="250" cy="400" r="1.2"/> <circle cx="350" cy="400" r="1.2"/> <circle cx="450" cy="400" r="1.2"/> <circle cx="550" cy="400" r="1.2"/> <circle cx="650" cy="400" r="1.2"/> <circle cx="750" cy="400" r="1.2"/> <circle cx="850" cy="400" r="1.2"/> <circle cx="950" cy="400" r="1.2"/>
    <circle cx="50" cy="500" r="1.2"/> <circle cx="150" cy="500" r="1.2"/> <circle cx="250" cy="500" r="1.2"/> <circle cx="350" cy="500" r="1.2"/> <circle cx="450" cy="500" r="1.2"/> <circle cx="550" cy="500" r="1.2"/> <circle cx="650" cy="500" r="1.2"/> <circle cx="750" cy="500" r="1.2"/> <circle cx="850" cy="500" r="1.2"/> <circle cx="950" cy="500" r="1.2"/>
    <circle cx="50" cy="600" r="1.2"/> <circle cx="150" cy="600" r="1.2"/> <circle cx="250" cy="600" r="1.2"/> <circle cx="350" cy="600" r="1.2"/> <circle cx="450" cy="600" r="1.2"/> <circle cx="550" cy="600" r="1.2"/> <circle cx="650" cy="600" r="1.2"/> <circle cx="750" cy="600" r="1.2"/> <circle cx="850" cy="600" r="1.2"/> <circle cx="950" cy="600" r="1.2"/>
  </g>

  <!-- ─── HEADER ─── -->
  <rect x="0" y="0" width="1000" height="70" fill="#0d1f3d" opacity="0.95"/>
  <line x1="0" y1="70" x2="1000" y2="70" stroke="#60a5fa" stroke-width="1" opacity="0.5"/>

  <!-- Logo in header -->
  <rect x="24" y="9" width="52" height="52" rx="9" fill="#0d1f3d" stroke="#1e3a5f" stroke-width="1"/>
  <path d="M30 35h9.8l7-21 9.3 42 7-21h9.8" stroke="#60a5fa" stroke-width="3.2" stroke-linecap="round" stroke-linejoin="round" fill="none"/>
  <circle cx="41.5" cy="14" r="3.4" fill="#60a5fa"/>
  <circle cx="55.5" cy="56" r="3.4" fill="#60a5fa"/>
  <text x="84" y="27" font-family="Courier New,Courier,monospace" font-size="10" fill="#6b7280" letter-spacing="2.5">pkt</text>
  <text x="81" y="54" font-family="Courier New,Courier,monospace" font-size="28" font-weight="700" fill="white" letter-spacing="-1">FLOW</text>

  <text x="500" y="30" text-anchor="middle" fill="#e2e8f0" font-size="18" font-weight="700" letter-spacing="1.5">Infrastructure Architecture</text>
  <text x="500" y="52" text-anchor="middle" fill="#64748b" font-size="11">Production deployment on Vyne Infrastructure · O2 Server · Two-site NetFlow collection</text>

  <!-- ─── INTERNET / CLOUD ZONE (top routers) ─── -->
  <text x="130" y="104" text-anchor="middle" fill="#4a6a8a" font-size="9" font-weight="700" letter-spacing="2">NETWORK EDGE</text>

  <!-- Router A: QTS -->
  <rect x="20" y="112" width="110" height="68" rx="9" fill="#0f1f35" stroke="#60a5fa" stroke-width="1.5" filter="url(#drop)"/>
  <rect x="20" y="112" width="110" height="18" rx="9" fill="#60a5fa" fill-opacity="0.15"/>
  <rect x="20" y="121" width="110" height="9" fill="#60a5fa" fill-opacity="0.08"/>
  <text x="75" y="124" text-anchor="middle" fill="#60a5fa" font-size="8" font-weight="700" letter-spacing="1">ROUTER · QTS</text>
  <text x="75" y="142" text-anchor="middle" fill="#94a3b8" font-size="8.5">172.27.28.89</text>
  <text x="75" y="156" text-anchor="middle" fill="#64748b" font-size="7.5">NetFlow v9 exporter</text>
  <text x="75" y="170" text-anchor="middle" fill="#4a9eff" font-size="7">UDP → :2055</text>

  <!-- Router B: OneNeck -->
  <rect x="145" y="112" width="120" height="68" rx="9" fill="#0f1f35" stroke="#60a5fa" stroke-width="1.5" filter="url(#drop)"/>
  <rect x="145" y="112" width="120" height="18" rx="9" fill="#60a5fa" fill-opacity="0.15"/>
  <rect x="145" y="121" width="120" height="9" fill="#60a5fa" fill-opacity="0.08"/>
  <text x="205" y="124" text-anchor="middle" fill="#60a5fa" font-size="8" font-weight="700" letter-spacing="1">ROUTER · ONENECK</text>
  <text x="205" y="142" text-anchor="middle" fill="#94a3b8" font-size="8.5">192.168.44.7 / .8</text>
  <text x="205" y="156" text-anchor="middle" fill="#64748b" font-size="7.5">NetFlow v9 exporter</text>
  <text x="205" y="170" text-anchor="middle" fill="#4a9eff" font-size="7">UDP → :2055</text>

  <!-- Router C: Dental -->
  <rect x="680" y="112" width="120" height="68" rx="9" fill="#0f1f35" stroke="#60a5fa" stroke-width="1.5" filter="url(#drop)"/>
  <rect x="680" y="112" width="120" height="18" rx="9" fill="#60a5fa" fill-opacity="0.15"/>
  <rect x="680" y="121" width="120" height="9" fill="#60a5fa" fill-opacity="0.08"/>
  <text x="740" y="124" text-anchor="middle" fill="#60a5fa" font-size="8" font-weight="700" letter-spacing="1">ROUTER · DENTAL</text>
  <text x="740" y="142" text-anchor="middle" fill="#94a3b8" font-size="8.5">10.19.56.186</text>
  <text x="740" y="156" text-anchor="middle" fill="#64748b" font-size="7.5">NetFlow v9 exporter</text>
  <text x="740" y="170" text-anchor="middle" fill="#4a9eff" font-size="7">UDP → :2055</text>

  <rect x="810" y="112" width="110" height="68" rx="9" fill="#0f1f35" stroke="#60a5fa" stroke-width="1.5" filter="url(#drop)"/>
  <rect x="810" y="112" width="110" height="18" rx="9" fill="#60a5fa" fill-opacity="0.15"/>
  <rect x="810" y="121" width="110" height="9" fill="#60a5fa" fill-opacity="0.08"/>
  <text x="865" y="124" text-anchor="middle" fill="#60a5fa" font-size="8" font-weight="700" letter-spacing="1">ROUTER · AWS</text>
  <text x="865" y="142" text-anchor="middle" fill="#94a3b8" font-size="8.5">10.19.81.236</text>
  <text x="865" y="156" text-anchor="middle" fill="#64748b" font-size="7.5">NetFlow v9 exporter</text>
  <text x="865" y="170" text-anchor="middle" fill="#4a9eff" font-size="7">UDP → :2055</text>

  <!-- ─── MEDICAL COLLECTOR BOX ─── -->
  <rect x="15" y="210" width="280" height="195" rx="14" fill="url(#medGrad)" stroke="#2ecc71" stroke-width="2" filter="url(#drop)"/>
  <rect x="15" y="210" width="280" height="32" rx="14" fill="#2ecc71" fill-opacity="0.12"/>
  <rect x="15" y="232" width="280" height="10" fill="#2ecc71" fill-opacity="0.06"/>
  <text x="30" y="228" fill="#2ecc71" font-size="9" font-weight="700" letter-spacing="1.5">MEDICAL COLLECTOR HOST</text>
  <text x="265" y="228" text-anchor="end" fill="#64748b" font-size="8">172.23.80.11 · ec2-user</text>

  <!-- goflow2 service -->
  <rect x="28" y="248" width="254" height="42" rx="7" fill="#071810" stroke="#2ecc71" stroke-width="1"/>
  <text x="155" y="265" text-anchor="middle" fill="#2ecc71" font-size="10" font-weight="700">goflow2</text>
  <text x="155" y="280" text-anchor="middle" fill="#94a3b8" font-size="8">-listen netflow://172.23.80.11:2055 -format json</text>

  <!-- pipe -->
  <text x="155" y="302" text-anchor="middle" fill="#2ecc71" font-size="16" opacity="0.6">|  stdout pipe  |</text>

  <!-- vector service -->
  <rect x="28" y="308" width="254" height="42" rx="7" fill="#071810" stroke="#2ecc71" stroke-width="1"/>
  <text x="155" y="325" text-anchor="middle" fill="#2ecc71" font-size="10" font-weight="700">Vector (stdin source)</text>
  <text x="155" y="340" text-anchor="middle" fill="#94a3b8" font-size="8">parse_json · add_site · HTTP batch → pktFlow</text>

  <!-- systemd badge -->
  <rect x="28" y="358" width="254" height="34" rx="7" fill="#071810" stroke="#16a34a" stroke-width="0.8"/>
  <text x="155" y="372" text-anchor="middle" fill="#4ade80" font-size="8.5" font-weight="600">systemd: goflow2-vector.service</text>
  <text x="155" y="385" text-anchor="middle" fill="#64748b" font-size="7.5">SSH key: VyneCorpNetInfra.pem</text>

  <!-- ─── DENTAL COLLECTOR BOX ─── -->
  <rect x="668" y="210" width="300" height="195" rx="14" fill="url(#denGrad)" stroke="#38bdf8" stroke-width="2" filter="url(#drop)"/>
  <rect x="668" y="210" width="300" height="32" rx="14" fill="#38bdf8" fill-opacity="0.10"/>
  <rect x="668" y="232" width="300" height="10" fill="#38bdf8" fill-opacity="0.05"/>
  <text x="683" y="228" fill="#38bdf8" font-size="9" font-weight="700" letter-spacing="1.5">DENTAL COLLECTOR HOST</text>
  <text x="960" y="228" text-anchor="end" fill="#64748b" font-size="8">10.56.57.181 · ec2-user</text>

  <rect x="680" y="248" width="274" height="42" rx="7" fill="#071018" stroke="#38bdf8" stroke-width="1"/>
  <text x="817" y="265" text-anchor="middle" fill="#38bdf8" font-size="10" font-weight="700">goflow2</text>
  <text x="817" y="280" text-anchor="middle" fill="#94a3b8" font-size="8">-listen netflow://10.56.57.181:2055 -format json</text>

  <text x="817" y="302" text-anchor="middle" fill="#38bdf8" font-size="14" opacity="0.6">exec source (no stdin)</text>

  <rect x="680" y="308" width="274" height="42" rx="7" fill="#071018" stroke="#38bdf8" stroke-width="1"/>
  <text x="817" y="325" text-anchor="middle" fill="#38bdf8" font-size="10" font-weight="700">Vector (exec source)</text>
  <text x="817" y="340" text-anchor="middle" fill="#94a3b8" font-size="8">parse_json · add_site · HTTP batch → pktFlow</text>

  <rect x="680" y="358" width="274" height="34" rx="7" fill="#071018" stroke="#0ea5e9" stroke-width="0.8"/>
  <text x="817" y="372" text-anchor="middle" fill="#7dd3fc" font-size="8.5" font-weight="600">systemd: goflow2-vector.service</text>
  <text x="817" y="385" text-anchor="middle" fill="#64748b" font-size="7.5">SSH key: corporate_infrastructure.pem</text>

  <!-- ─── O2 SERVER (CENTER) ─── -->
  <rect x="305" y="210" width="358" height="390" rx="16" fill="url(#o2grad)" stroke="#a855f7" stroke-width="2.5" filter="url(#drop)"/>
  <rect x="305" y="210" width="358" height="38" rx="16" fill="#a855f7" fill-opacity="0.12"/>
  <rect x="305" y="234" width="358" height="14" fill="#a855f7" fill-opacity="0.06"/>

  <!-- O2 header logo -->
  <rect x="315" y="217" width="28" height="28" rx="5" fill="#0d1f3d"/>
  <path d="M318 231h5.3l4-12 5.3 24 4-12h5.3" stroke="#60a5fa" stroke-width="2.2" stroke-linecap="round" stroke-linejoin="round" fill="none"/>
  <circle cx="326.5" cy="219" r="2.5" fill="#60a5fa"/>
  <circle cx="332.5" cy="243" r="2.5" fill="#60a5fa"/>
  <text x="350" y="227" font-family="Courier New,Courier,monospace" font-size="7" fill="#6b7280" letter-spacing="2">pkt</text>
  <text x="347" y="242" font-family="Courier New,Courier,monospace" font-size="18" font-weight="700" fill="white" letter-spacing="-0.5">FLOW</text>

  <text x="484" y="230" text-anchor="end" fill="#a855f7" font-size="9" font-weight="700" letter-spacing="1">O2 SERVER · PRODUCTION</text>
  <text x="484" y="244" text-anchor="end" fill="#64748b" font-size="8">172.23.80.5 · Amazon Linux 2023 · ec2-user</text>

  <!-- pktFlow service box -->
  <rect x="318" y="258" width="332" height="120" rx="10" fill="#12084a" stroke="#a855f7" stroke-width="1.2"/>
  <text x="484" y="274" text-anchor="middle" fill="#c084fc" font-size="9.5" font-weight="700" letter-spacing="1">pktFlow Application</text>
  <text x="484" y="288" text-anchor="middle" fill="#64748b" font-size="7.5">Port 8766 · FastAPI · Python · venv: /mnt/software/pktflow/venv</text>

  <!-- mini feature grid -->
  <rect x="328" y="296" width="148" height="24" rx="5" fill="#1e1040" stroke="#7c3aed" stroke-width="0.8"/>
  <text x="402" y="312" text-anchor="middle" fill="#a78bfa" font-size="8">Ingest API · Normalizer · Buffer</text>

  <rect x="482" y="296" width="158" height="24" rx="5" fill="#1e1040" stroke="#7c3aed" stroke-width="0.8"/>
  <text x="561" y="312" text-anchor="middle" fill="#a78bfa" font-size="8">Query API · Alert Engine · Auth</text>

  <rect x="328" y="326" width="148" height="24" rx="5" fill="#1e1040" stroke="#7c3aed" stroke-width="0.8"/>
  <text x="402" y="342" text-anchor="middle" fill="#a78bfa" font-size="8">Dashboard · Geo Map · Topology</text>

  <rect x="482" y="326" width="158" height="24" rx="5" fill="#1e1040" stroke="#7c3aed" stroke-width="0.8"/>
  <text x="561" y="342" text-anchor="middle" fill="#a78bfa" font-size="8">JWT · bcrypt · RBAC</text>

  <rect x="328" y="356" width="312" height="16" rx="5" fill="#1e1040" stroke="#7c3aed" stroke-width="0.8"/>
  <text x="484" y="368" text-anchor="middle" fill="#64748b" font-size="7.5">systemd: pktflow.service · /mnt/software/pktflow/ · config.yaml</text>

  <!-- ClickHouse box -->
  <rect x="318" y="392" width="332" height="100" rx="10" fill="#1a0800" stroke="#f97316" stroke-width="1.2"/>
  <text x="484" y="410" text-anchor="middle" fill="#fb923c" font-size="9.5" font-weight="700" letter-spacing="1">ClickHouse</text>
  <text x="484" y="425" text-anchor="middle" fill="#64748b" font-size="7.5">localhost:9000 · database: pktflow · v26.5.3 · Amazon Linux 2023</text>

  <rect x="328" y="432" width="148" height="24" rx="5" fill="#110600" stroke="#ea580c" stroke-width="0.8"/>
  <text x="402" y="448" text-anchor="middle" fill="#fb923c" font-size="8">pktflow.flows (MergeTree)</text>

  <rect x="482" y="432" width="158" height="24" rx="5" fill="#110600" stroke="#ea580c" stroke-width="0.8"/>
  <text x="561" y="448" text-anchor="middle" fill="#fb923c" font-size="8">~148 flows/sec · thread-safe</text>

  <rect x="328" y="462" width="312" height="22" rx="5" fill="#110600" stroke="#ea580c" stroke-width="0.8"/>
  <text x="484" y="477" text-anchor="middle" fill="#64748b" font-size="7.5">Lock-serialized writes · columnar storage · fast GROUP BY aggregation</text>

  <!-- SQLite box -->
  <rect x="318" y="506" width="332" height="44" rx="8" fill="#0a1218" stroke="#64748b" stroke-width="1"/>
  <text x="484" y="522" text-anchor="middle" fill="#94a3b8" font-size="9" font-weight="600">SQLite · pktflow.db</text>
  <text x="484" y="537" text-anchor="middle" fill="#64748b" font-size="7.5">users · settings · alert_rules · alert_events · vpn_mappings · notification_log</text>

  <!-- Disk label -->
  <rect x="318" y="560" width="332" height="32" rx="8" fill="#0a1218" stroke="#374151" stroke-width="0.8"/>
  <text x="484" y="574" text-anchor="middle" fill="#4b5563" font-size="8" font-weight="600">SSH: VyneCorpNetInfra.pem · /mnt/software/pktflow/</text>
  <text x="484" y="587" text-anchor="middle" fill="#374151" font-size="7.5">App dir · Venv · Config · Static · DB</text>

  <!-- ─── BROWSER CLIENTS ─── -->
  <rect x="380" y="618" width="210" height="58" rx="12" fill="#0a1e2e" stroke="#22d3ee" stroke-width="1.8" filter="url(#drop)"/>
  <text x="485" y="637" text-anchor="middle" fill="#22d3ee" font-size="10" font-weight="700" letter-spacing="1">BROWSER CLIENT</text>
  <text x="485" y="653" text-anchor="middle" fill="#94a3b8" font-size="8">http://172.23.80.5:8766 · Admin / Analyst / Viewer</text>
  <text x="485" y="667" text-anchor="middle" fill="#64748b" font-size="7.5">Role-based access · JWT auth · Live dashboard</text>

  <!-- ─── ARROWS ─── -->
  <!-- Router A → Medical Collector -->
  <line x1="75" y1="180" x2="100" y2="210" stroke="#60a5fa" stroke-width="1.5" stroke-dasharray="5,3" marker-end="url(#arr1)" opacity="0.7"/>
  <!-- Router B → Medical Collector -->
  <line x1="205" y1="180" x2="180" y2="210" stroke="#60a5fa" stroke-width="1.5" stroke-dasharray="5,3" marker-end="url(#arr1)" opacity="0.7"/>
  <!-- Router C → Dental Collector -->
  <line x1="740" y1="180" x2="780" y2="210" stroke="#60a5fa" stroke-width="1.5" stroke-dasharray="5,3" marker-end="url(#arr1)" opacity="0.7"/>
  <!-- Router D → Dental Collector -->
  <line x1="865" y1="180" x2="845" y2="210" stroke="#60a5fa" stroke-width="1.5" stroke-dasharray="5,3" marker-end="url(#arr1)" opacity="0.7"/>

  <!-- Medical Collector → O2 pktFlow -->
  <line x1="295" y1="320" x2="305" y2="320" stroke="#a855f7" stroke-width="2" marker-end="url(#arr2)" opacity="0.9"/>
  <rect x="250" y="290" width="55" height="28" rx="4" fill="#0a0f1a" opacity="0.95"/>
  <text x="277" y="302" text-anchor="middle" fill="#a855f7" font-size="7.5" font-weight="600">HTTP POST</text>
  <text x="277" y="314" text-anchor="middle" fill="#a855f7" font-size="7">JSON array</text>

  <!-- Dental Collector → O2 pktFlow -->
  <line x1="668" y1="320" x2="663" y2="320" stroke="#a855f7" stroke-width="2" marker-end="url(#arr2)" opacity="0.9"/>
  <rect x="615" y="290" width="55" height="28" rx="4" fill="#0a0f1a" opacity="0.95"/>
  <text x="642" y="302" text-anchor="middle" fill="#a855f7" font-size="7.5" font-weight="600">HTTP POST</text>
  <text x="642" y="314" text-anchor="middle" fill="#a855f7" font-size="7">JSON array</text>

  <!-- pktFlow ↔ ClickHouse (internal) -->
  <line x1="484" y1="378" x2="484" y2="392" stroke="#f97316" stroke-width="1.5" marker-end="url(#arr4)" opacity="0.8"/>

  <!-- Browser → O2 -->
  <line x1="485" y1="618" x2="485" y2="602" stroke="#22d3ee" stroke-width="2" stroke-dasharray="5,3" marker-end="url(#arr3)" opacity="0.9"/>
  <rect x="444" y="601" width="82" height="16" rx="3" fill="#0a0f1a" opacity="0.95"/>
  <text x="485" y="613" text-anchor="middle" fill="#22d3ee" font-size="7.5" font-weight="600">REST API / JWT / Port 8766</text>

  <!-- ─── UDP label -->
  <text x="130" y="200" text-anchor="middle" fill="#4a9eff" font-size="8" opacity="0.8">NetFlow v9 UDP :2055</text>
  <text x="808" y="200" text-anchor="middle" fill="#4a9eff" font-size="8" opacity="0.8">NetFlow v9 UDP :2055</text>

  <!-- ─── LEGEND ─── -->
  <rect x="620" y="618" width="360" height="58" rx="10" fill="#0d1117" stroke="#1e293b" stroke-width="1"/>
  <text x="635" y="635" fill="#64748b" font-size="8.5" font-weight="600">LEGEND</text>
  <line x1="635" y1="648" x2="660" y2="648" stroke="#60a5fa" stroke-width="1.5" stroke-dasharray="5,2"/>
  <text x="666" y="652" fill="#94a3b8" font-size="8">UDP NetFlow</text>
  <line x1="635" y1="665" x2="660" y2="665" stroke="#a855f7" stroke-width="1.5"/>
  <text x="666" y="669" fill="#94a3b8" font-size="8">HTTP POST JSON</text>
  <line x1="745" y1="648" x2="770" y2="648" stroke="#f97316" stroke-width="1.5"/>
  <text x="776" y="652" fill="#94a3b8" font-size="8">ClickHouse TCP</text>
  <line x1="745" y1="665" x2="770" y2="665" stroke="#22d3ee" stroke-width="1.5" stroke-dasharray="5,2"/>
  <text x="776" y="669" fill="#94a3b8" font-size="8">REST API (browser)</text>

  <!-- Ingest rate badge -->
  <rect x="20" y="618" width="180" height="58" rx="10" fill="#0d1117" stroke="#1e293b" stroke-width="1"/>
  <text x="110" y="638" text-anchor="middle" fill="#64748b" font-size="8.5" font-weight="600">LIVE INGEST STATS</text>
  <text x="110" y="655" text-anchor="middle" fill="#2ecc71" font-size="14" font-weight="700">~148 flows/sec</text>
  <text x="110" y="670" text-anchor="middle" fill="#64748b" font-size="8">Medical + Dental combined</text>

  <!-- Version watermark -->
  <text x="990" y="695" text-anchor="end" fill="#1e293b" font-size="7.5">pktFlow v1.0 · Vyne Infrastructure</text>
</svg>
